# xmcd CD database file
#
# Track frame offsets:
#	150
#	9923
#	24891
#	40018
#	54739
#	69486
#	87431
#	102565
#	123995
#	142960
#	160550
#	180638
#
# Disc length: 2726 seconds
#
# Revision: 0
# Processed by: cddbd v1.5.1PL0 Copyright (c) Steve Scherf et al.
# Submitted via: CDex 1.51
#
DISCID=8f0aa40c
DTITLE=Jan Bierther - Bernd Nestler - Traces
DYEAR=2004
DGENRE=Jazz
TTITLE0=28
TTITLE1=Big fat smile
TTITLE2=Can you hear me
TTITLE3=Schulbeginn
TTITLE4=Binomi Gnomi
TTITLE5=Ornette
TTITLE6=Time will tell
TTITLE7=Cheetah und die agressiven Ableitungen
TTITLE8=Dreaming of Pia
TTITLE9=Trenne nie ST
TTITLE10=How insensitive
TTITLE11=My friend
EXTD=YEAR: 2004
EXTT0=
EXTT1=
EXTT2=
EXTT3=
EXTT4=
EXTT5=
EXTT6=
EXTT7=
EXTT8=
EXTT9=
EXTT10=
EXTT11=
PLAYORDER=
